/* XPM */
static char *result[] = {
/* columns rows colors chars-per-pixel */
"32 32 128 2 ",
"   c #323821",
".  c #343821",
"X  c #343A22",
"o  c #363D23",
"O  c #373E23",
"+  c #393822",
"@  c #3D3922",
"#  c #423923",
"$  c #443923",
"%  c #543A25",
"&  c #623A26",
"*  c #663A27",
"=  c #693B27",
"-  c #394024",
";  c #3B4224",
":  c #3D4525",
">  c #3E4626",
",  c #3E4726",
"<  c #3F4726",
"1  c #3C412B",
"2  c #404826",
"3  c #404927",
"4  c #454F28",
"5  c #474B2E",
"6  c #465029",
"7  c #49532A",
"8  c #49542A",
"9  c #4C572B",
"0  c #4E5A2C",
"q  c #515D2D",
"w  c #4C4C32",
"e  c #4C513D",
"r  c #55632F",
"t  c #56632F",
"y  c #586630",
"u  c #596731",
"i  c #5B6931",
"p  c #5D6C32",
"a  c #5E6A3E",
"s  c #617134",
"d  c #627334",
"f  c #637435",
"g  c #667736",
"h  c #687936",
"j  c #6C7E38",
"k  c #6B7A3E",
"l  c #667341",
"z  c #626755",
"x  c #767F5D",
"c  c #75796A",
"v  c #823C2A",
"b  c #A23D2D",
"n  c #B23E2F",
"m  c #6D8039",
"M  c #6E8039",
"N  c #71843A",
"B  c #74883C",
"V  c #75893C",
"C  c #768A3C",
"Z  c #768B3D",
"A  c #798E3D",
"S  c #798E3E",
"D  c #7B913F",
"F  c #7D933F",
"G  c #7F953F",
"H  c #7C816D",
"J  c #7F8374",
"K  c #809243",
"L  c #809740",
"P  c #819841",
"I  c #849B41",
"U  c #859D43",
"Y  c #89A143",
"T  c #89A144",
"R  c #8AA244",
"E  c #8BA444",
"W  c #8DA645",
"Q  c #8DA745",
"!  c #8FA846",
"~  c #90A946",
"^  c #90A947",
"/  c #90AA47",
"(  c #91AB47",
")  c #91AC48",
"_  c #92AD48",
"`  c #93AD48",
"'  c #93AE48",
"]  c #95AF48",
"[  c #96B149",
"{  c #96B249",
"}  c #96B24A",
"|  c #97B34A",
" . c #9AB54B",
".. c #9AB64B",
"X. c #9BB74B",
"o. c #9CB84C",
"O. c #9CB94C",
"+. c #9DBA4C",
"@. c #9EBB4D",
"#. c #9FBC4D",
"$. c #9BA555",
"%. c #A3BC52",
"&. c #A7A961",
"*. c #B1B465",
"=. c #B2B665",
"-. c #B9BF69",
";. c #BAAE73",
":. c #BEB971",
">. c #C3B976",
",. c #C6BA79",
"<. c #C6BA7A",
"1. c #C7C674",
"2. c #8F9286",
"3. c #A6AA9C",
"4. c #A7AB9C",
"5. c #B2B4AC",
"6. c #DBCD86",
"7. c #D9C489",
"8. c #E2C393",
"9. c #E5C397",
"0. c #E7C398",
"q. c #FFD7A8",
"w. c #E5E6E3",
"e. c #E9E9E7",
"r. c #EFEFEE",
"t. c gray99",
"y. c white",
"u. c None",
/* pixels */
"u.u.u.u.u.u.u.u.u.u.u.u.u.u.u.u.u.u.u.u.u.u.u.u.u.u.u.u.u.u.u.u.",
"u.u.u.u.u.u.u.u.u.u.u.u.u.u.u.u.u.u.u.u.u.u.u.u.u.u.u.u.u.u.u.u.",
"u.u.u.u.u.u.u.u.u.u.u.u.u.u.u.u.u.u.u.u.u.u.u.u.u.u.u.u.u.u.u.u.",
"u.u.u.u.u.u.u.u.u.u.u.u.u.u.u.u.u.u.u.u.u.u.u.u.u.u.u.u.u.u.u.u.",
"u.u.u.u.u.u.u.u.u.u.u.u.                        u.u.u.u.u.u.u.u.",
"u.u.u.u.u.u.u.u.u.u.u.u.f h m Z Z Z Z Z Z Z Z N u.u.u.u.u.u.u.u.",
"u.u.u.u.u.u.u.u.  6 6 - s h A | @.#.o.[ [ [  .( 2 u.u.u.u.u.u.u.",
"u.u.u.u.u.u.u.# . s k e e e a P X.} ! E E E W U > u.u.u.u.u.u.u.",
"u.u.u.u.u.u.* b # - H w.w.w.3.8 ` f d O.O.O.S > X u.u.u.u.u.u.u.",
"u.u.u.u.u.u.= n $   J y.y.y.5.3 ) U U #.#.#.^ M ; u.u.u.u.u.u.u.",
"u.u.u.u.u.u.% v @   J y.y.y.5.3 ) #.#.#.#.#.#.( 2 u.u.u.u.u.u.u.",
"u.u.u.u.u.u.  . # + c e.t.r.4.9 ' #.#.#.#.#.#.( 2 u.u.u.u.u.u.u.",
"u.u.u.u.u.u.u.# b & 1 z e.2.l ' +.#.#.#.#.#.#.( 2 u.u.u.u.u.u.u.",
"u.u.u.u.u.u.u.$ n =   e w.J r _ +.#.#.#.#.B i t O u.u.u.u.u.u.u.",
"u.u.u.u.u.u.u.@ v % , a 3.x g R ] o.^ C C u.u.u.u.u.u.u.u.u.u.u.",
"u.u.u.u.u.u.u.      0 V 4 j Y E E | D > X u.u.u.u.u.u.u.u.u.u.u.",
"u.u.u.u.u.u.u.u.u.u.o 4 V I ~ O.O.@...U > u.u.u.u.u.u.u.u.u.u.u.",
"u.u.u.u.u.u.u.u.u.u.u.: F &.<.6.6.6.6.,.5 u.u.u.u.u.u.u.u.u.u.u.",
"u.u.u.u.u.u.u.u.u.u.u.: F ;.0.q.q.q.q.9.w u.u.u.u.u.u.u.u.u.u.u.",
"u.u.u.u.u.u.u.u.u.u.u.7 G ;.0.q.q.q.q.9.w u.u.u.u.u.u.u.u.u.u.u.",
"u.u.u.u.u.u.u.u.u.  u / T ;.0.q.q.q.q.9.w   u.u.u.u.u.u.u.u.u.u.",
"u.u.u.u.u.u.u.u.  p L ~ Y $.*.1.8.0.7.-.K 9 u.u.u.u.u.u.u.u.u.u.",
"u.u.u.u.u.u.u.u.  p N j I Q [ %.:.>.=.[ [ y u.u.u.u.u.u.u.u.u.u.",
"u.u.u.u.u.u.u.u.u.    : F { ..( ( ( R F F q u.u.u.u.u.u.u.u.u.u.",
"u.u.u.u.u.u.u.u.u.u.u.: F { D 2 2 2 < : : u.u.u.u.u.u.u.u.u.u.u.",
"u.u.u.u.u.u.u.u.u.u.u.: F j u.u.u.u.u.u.u.u.u.u.u.u.u.u.u.u.u.u.",
"u.u.u.u.u.u.u.u.u.u.u.- s u.u.u.u.u.u.u.u.u.u.u.u.u.u.u.u.u.u.u.",
"u.u.u.u.u.u.u.u.u.u.u.    u.u.u.u.u.u.u.u.u.u.u.u.u.u.u.u.u.u.u.",
"u.u.u.u.u.u.u.u.u.u.u.u.u.u.u.u.u.u.u.u.u.u.u.u.u.u.u.u.u.u.u.u.",
"u.u.u.u.u.u.u.u.u.u.u.u.u.u.u.u.u.u.u.u.u.u.u.u.u.u.u.u.u.u.u.u.",
"u.u.u.u.u.u.u.u.u.u.u.u.u.u.u.u.u.u.u.u.u.u.u.u.u.u.u.u.u.u.u.u.",
"u.u.u.u.u.u.u.u.u.u.u.u.u.u.u.u.u.u.u.u.u.u.u.u.u.u.u.u.u.u.u.u."
};
