/* XPM */
static char *result[] = {
/* columns rows colors chars-per-pixel */
"32 32 112 2 ",
"   c #323821",
".  c #343821",
"X  c #373E23",
"o  c #393822",
"O  c #3D3922",
"+  c #423923",
"@  c #443923",
"#  c #623A26",
"$  c #693B27",
"%  c #394024",
"&  c #3B4224",
"*  c #3D4525",
"=  c #3E4726",
"-  c #404826",
";  c #444A2B",
":  c #474B2E",
">  c #465029",
",  c #49532A",
"<  c #515D2D",
"1  c #525F2E",
"2  c #4C4C32",
"3  c #4C513D",
"4  c #68522D",
"5  c #54612E",
"6  c #55632F",
"7  c #56632F",
"8  c #596730",
"9  c #596731",
"0  c #5B6931",
"q  c #5B6A32",
"w  c #5D6C32",
"e  c #626F3F",
"r  c #617134",
"t  c #647435",
"y  c #687936",
"u  c #626755",
"i  c #823C2A",
"p  c #A23D2D",
"a  c #B23E2F",
"s  c #6D8039",
"d  c #6E8039",
"f  c #71843A",
"g  c #71853A",
"h  c #74883C",
"j  c #768A3C",
"k  c #7B913F",
"l  c #7C923F",
"z  c #7D933F",
"x  c #7F953F",
"c  c #778550",
"v  c #809640",
"b  c #809740",
"n  c #819840",
"m  c #859D43",
"M  c #879E42",
"N  c #88A043",
"B  c #89A143",
"V  c #89A144",
"C  c #8AA244",
"Z  c #8BA344",
"A  c #8BA444",
"S  c #8DA745",
"D  c #90A946",
"F  c #90A947",
"G  c #90AA47",
"H  c #91AB47",
"J  c #92AD48",
"K  c #95AF48",
"L  c #96B149",
"P  c #96B249",
"I  c #97B34A",
"U  c #9AB64B",
"Y  c #9CB84C",
"T  c #9CB94C",
"R  c #9DBA4C",
"E  c #9EBB4D",
"W  c #9FBC4D",
"Q  c #9BA555",
"!  c #A0BC4E",
"~  c #A3BC52",
"^  c #A5BB54",
"/  c #A6BB55",
"(  c #A7A961",
")  c #A4B66F",
"_  c #B1B465",
"`  c #BAAE73",
"'  c #BEB971",
"]  c #C6BA79",
"[  c #C6BA7A",
"{  c #C3C66F",
"}  c #A2AD84",
"|  c #B2B4AC",
" . c #BCBEB6",
".. c #CBB880",
"X. c #D1B887",
"o. c #B5C489",
"O. c #B5C48A",
"+. c #B6C58C",
"@. c #DECD89",
"#. c #E5C397",
"$. c #E8CC95",
"%. c #E7C398",
"&. c #EECB9C",
"*. c #F0CB9F",
"=. c #C2CCA7",
"-. c #D2DBB8",
";. c #FFD7A8",
":. c #E5E6E3",
">. c #E9E9E7",
",. c #F5F6F5",
"<. c gray99",
"1. c None",
/* pixels */
"1.1.1.1.1.1.1.1.1.1.1.1.1.1.1.1.1.1.1.1.1.1.1.1.1.1.1.1.1.1.1.1.",
"1.1.1.1.1.1.1.1.1.1.1.1.1.1.1.1.1.1.1.1.1.1.1.1.1.1.1.1.1.1.1.1.",
"1.1.1.1.1.1.1.1.1.1.1.1.1.1.1.1.1.1.1.1.1.1.1.1.1.1.1.1.1.1.1.1.",
"1.1.1.1.1.1.1.1.1.1.1.1.1.1.1.1.1.1.1.1.1.1.1.1.1.1.1.1.1.1.1.1.",
"1.1.1.1.1.1.1.1.1.1.1.1.1.1.1.1.1.1.1.1.1.1.1.1.1.1.1.1.1.1.1.1.",
"1.1.1.1.1.1.1.1.1.1.1.1.< 1 6 q q q q q q q q 9 1.1.1.1.1.1.1.1.",
"1.1.1.1.1.1.1.1.  % * > x N D T W W E Y Y Y R H - 1.1.1.1.1.1.1.",
"1.1.1.1.1.1.1.    r z x M N B S T W I Z Z Z J H - 1.1.1.1.1.1.1.",
"1.1.1.1.1.1.1.i O y ) =.e } +.A T h g P P P v 7 X 1.1.1.1.1.1.1.",
"1.1.1.1.1.1.$ a @ y O.:.3 | -.A T h h W W W m 7 X 1.1.1.1.1.1.1.",
"1.1.1.1.1.1.# p + y O.>.u  .-.A T W W W W W W H - 1.1.1.1.1.1.1.",
"1.1.1.1.1.1.o + . y O.<.>.,.-.A T W W W W W W H - 1.1.1.1.1.1.1.",
"1.1.1.1.1.1.1.O i 4 c o.o.o.) A T W W W W W W H - 1.1.1.1.1.1.1.",
"1.1.1.1.1.1.1.@ a $ 1 N N N N C K Y W W W m j d & 1.1.1.1.1.1.1.",
"1.1.1.1.1.1.1.+ p # 1 N N N B A A I U H H 9       1.1.1.1.1.1.1.",
"1.1.1.1.1.1.1.. + o 1 N N N D T T E k - - 1.1.1.1.1.1.1.1.1.1.1.",
"1.1.1.1.1.1.1.1.1.1.= 8 n N H W W W F d & 1.1.1.1.1.1.1.1.1.1.1.",
"1.1.1.1.1.1.1.1.1.1.1.* z Q _ { { { { _ ; 1.1.1.1.1.1.1.1.1.1.1.",
"1.1.1.1.1.1.1.1.1.1.1., x ` %.;.;.;.;.#.2 1.1.1.1.1.1.1.1.1.1.1.",
"1.1.1.1.1.1.1.1.1.  9 G V ` %.;.;.;.;.#.2 1.1.1.1.1.1.1.1.1.1.1.",
"1.1.1.1.1.1.1.1.  w b D B ` %.;.;.;.;.#.2 1.1.1.1.1.1.1.1.1.1.1.",
"1.1.1.1.1.1.1.1.  w z N N ( [ @.&.*.$.] : 1.1.1.1.1.1.1.1.1.1.1.",
"1.1.1.1.1.1.1.1.1.  < x M C J ^ ..X.' H - 1.1.1.1.1.1.1.1.1.1.1.",
"1.1.1.1.1.1.1.1.1.1.1.> x K R ! ^ / ~ H - 1.1.1.1.1.1.1.1.1.1.1.",
"1.1.1.1.1.1.1.1.1.1.1.* z P m 0 0 l L H - 1.1.1.1.1.1.1.1.1.1.1.",
"1.1.1.1.1.1.1.1.1.1.1.% r f t 1.  5 s f 1.1.1.1.1.1.1.1.1.1.1.1.",
"1.1.1.1.1.1.1.1.1.1.1.      1.1.        1.1.1.1.1.1.1.1.1.1.1.1.",
"1.1.1.1.1.1.1.1.1.1.1.1.1.1.1.1.1.1.1.1.1.1.1.1.1.1.1.1.1.1.1.1.",
"1.1.1.1.1.1.1.1.1.1.1.1.1.1.1.1.1.1.1.1.1.1.1.1.1.1.1.1.1.1.1.1.",
"1.1.1.1.1.1.1.1.1.1.1.1.1.1.1.1.1.1.1.1.1.1.1.1.1.1.1.1.1.1.1.1.",
"1.1.1.1.1.1.1.1.1.1.1.1.1.1.1.1.1.1.1.1.1.1.1.1.1.1.1.1.1.1.1.1.",
"1.1.1.1.1.1.1.1.1.1.1.1.1.1.1.1.1.1.1.1.1.1.1.1.1.1.1.1.1.1.1.1."
};
