/* XPM */
static char *result[] = {
/* columns rows colors chars-per-pixel */
"32 32 114 2 ",
"   c #323821",
".  c #343821",
"X  c #343A22",
"o  c #363D23",
"O  c #373E23",
"+  c #3D3922",
"@  c #423923",
"#  c #443923",
"$  c #543A25",
"%  c #663A27",
"&  c #693B27",
"*  c #394024",
"=  c #3B4224",
"-  c #3D4525",
";  c #3E4626",
":  c #404826",
">  c #404927",
",  c #444A2B",
"<  c #474B2E",
"1  c #465029",
"2  c #49532A",
"3  c #4C572B",
"4  c #4E5A2C",
"5  c #525F2E",
"6  c #4C4C32",
"7  c #4C513D",
"8  c #694229",
"9  c #54612E",
"0  c #55632F",
"q  c #56632F",
"w  c #596730",
"e  c #596731",
"r  c #5B6A32",
"t  c #626F3F",
"y  c #617134",
"u  c #687134",
"i  c #687936",
"p  c #6C7E38",
"a  c #636C48",
"s  c #626755",
"d  c #823C2A",
"f  c #A23D2D",
"g  c #B23E2F",
"h  c #6E8039",
"j  c #6F8139",
"k  c #6F8239",
"l  c #71853A",
"z  c #74883C",
"x  c #768A3C",
"c  c #778C3C",
"v  c #7B913F",
"b  c #7D933F",
"n  c #7F953F",
"m  c #809640",
"M  c #849B41",
"N  c #859D43",
"B  c #879E42",
"V  c #88A043",
"C  c #89A143",
"Z  c #89A144",
"A  c #8AA244",
"S  c #8BA344",
"D  c #8BA444",
"F  c #8DA745",
"G  c #90A946",
"H  c #90A947",
"J  c #90AA47",
"K  c #91AB47",
"L  c #91AC48",
"P  c #92AD48",
"I  c #95AF48",
"U  c #96B149",
"Y  c #96B249",
"T  c #97B34A",
"R  c #98B44A",
"E  c #9AB64B",
"W  c #9CB84C",
"Q  c #9CB94C",
"!  c #9DBA4C",
"~  c #9EBB4D",
"^  c #9FBC4D",
"/  c #9BA555",
"(  c #A3BC52",
")  c #868B77",
"_  c #A7A961",
"`  c #A4B66F",
"'  c #B1B465",
"]  c #B5BA67",
"[  c #BAAE73",
"{  c #BEB971",
"}  c #C3B976",
"|  c #C6BA79",
" . c #C6BA7A",
".. c #C7C674",
"X. c #A2AD84",
"o. c #AEBC87",
"O. c #B2B4AC",
"+. c #BCBEB6",
"@. c #B5C489",
"#. c #B5C48A",
"$. c #B6C58C",
"%. c #DBCD86",
"&. c #D9C489",
"*. c #E2C393",
"=. c #E5C397",
"-. c #E7C398",
";. c #C2CCA7",
":. c #D2DBB8",
">. c #FFD7A8",
",. c #E5E6E3",
"<. c #E9E9E7",
"1. c #F5F6F5",
"2. c gray99",
"3. c None",
/* pixels */
"3.3.3.3.3.3.3.3.3.3.3.3.3.3.3.3.3.3.3.3.3.3.3.3.3.3.3.3.3.3.3.3.",
"3.3.3.3.3.3.3.3.3.3.3.3.3.3.3.3.3.3.3.3.3.3.3.3.3.3.3.3.3.3.3.3.",
"3.3.3.3.3.3.3.3.3.3.3.3.3.3.3.3.3.3.3.3.3.3.3.3.3.3.3.3.3.3.3.3.",
"3.3.3.3.3.3.3.3.3.3.3.3.3.3.3.3.3.3.3.3.3.3.3.3.3.3.3.3.3.3.3.3.",
"3.3.3.3.3.3.3.3.3.3.3.3.3.3.3.3.3.3.3.3.3.3.3.3.3.3.3.3.3.3.3.3.",
"3.3.3.3.3.3.3.3.  1 5 5 5 5 0 r r r r r r r r e 3.3.3.3.3.3.3.3.",
"3.3.3.3.3.3.3.@ . i V V V V G Q ^ ^ ~ W W W ! K : 3.3.3.3.3.3.3.",
"3.3.3.3.3.  % f @ i V V V V C F Q ^ T S S S P K : 3.3.3.3.3.3.3.",
"3.3.3.3.3.  & g # i ` ;.t X.$.D Q z l Y Y Y m q O 3.3.3.3.3.3.3.",
"3.3.3.3.3.  $ d + i #.,.7 O.:.D Q z z ^ ^ ^ N q O 3.3.3.3.3.3.3.",
"3.3.3.3.3.    . @ u o.<.s +.:.D Q ^ ^ ^ ^ ^ ^ K : 3.3.3.3.3.3.3.",
"3.3.3.3.3.3.3.@ f 8 ) 2.<.1.:.D Q ^ ^ ^ ^ ^ ^ K : 3.3.3.3.3.3.3.",
"3.3.3.3.3.3.3.# g & a @.@.@.` D Q ^ ^ ^ ^ ^ ^ K : 3.3.3.3.3.3.3.",
"3.3.3.3.3.3.3.+ d $ 5 V V V V A I W H x x x x h = 3.3.3.3.3.3.3.",
"3.3.3.3.3.3.3.      4 n B V C D D T v ; X         3.3.3.3.3.3.3.",
"3.3.3.3.3.3.3.3.3.3.o 1 n V G Q Q ~ E N ; 3.3.3.3.3.3.3.3.3.3.3.",
"3.3.3.3.3.3.3.3.3.3.3.- b _  .%.%.%.%.| < 3.3.3.3.3.3.3.3.3.3.3.",
"3.3.3.3.3.3.3.3.3.3.3.- b [ -.>.>.>.>.=.6 3.3.3.3.3.3.3.3.3.3.3.",
"3.3.3.3.3.3.3.3.  = > 2 n [ -.>.>.>.>.=.6 3.3.3.3.3.3.3.3.3.3.3.",
"3.3.3.3.3.3.3.3.  h L J Z [ -.>.>.>.>.=.6 3.3.3.3.3.3.3.3.3.3.3.",
"3.3.3.3.3.3.3.3.  3 k G C / ' ..*.-.&.' , 3.3.3.3.3.3.3.3.3.3.3.",
"3.3.3.3.3.3.3.3.3.  1 p M F U ( { } ] K : 3.3.3.3.3.3.3.3.3.3.3.",
"3.3.3.3.3.3.3.3.3.3.  - b Y E K K R ! K : 3.3.3.3.3.3.3.3.3.3.3.",
"3.3.3.3.3.3.3.3.3.3.3.- b Y v : : j P K : 3.3.3.3.3.3.3.3.3.3.3.",
"3.3.3.3.3.3.3.3.3.3.3.- b p 3.3.  i c e 3.3.3.3.3.3.3.3.3.3.3.3.",
"3.3.3.3.3.3.3.3.3.3.3.* y 3.3.3.  9 w 3.3.3.3.3.3.3.3.3.3.3.3.3.",
"3.3.3.3.3.3.3.3.3.3.3.    3.3.3.    3.3.3.3.3.3.3.3.3.3.3.3.3.3.",
"3.3.3.3.3.3.3.3.3.3.3.3.3.3.3.3.3.3.3.3.3.3.3.3.3.3.3.3.3.3.3.3.",
"3.3.3.3.3.3.3.3.3.3.3.3.3.3.3.3.3.3.3.3.3.3.3.3.3.3.3.3.3.3.3.3.",
"3.3.3.3.3.3.3.3.3.3.3.3.3.3.3.3.3.3.3.3.3.3.3.3.3.3.3.3.3.3.3.3.",
"3.3.3.3.3.3.3.3.3.3.3.3.3.3.3.3.3.3.3.3.3.3.3.3.3.3.3.3.3.3.3.3.",
"3.3.3.3.3.3.3.3.3.3.3.3.3.3.3.3.3.3.3.3.3.3.3.3.3.3.3.3.3.3.3.3."
};
