/* XPM */
static char *result[] = {
/* columns rows colors chars-per-pixel */
"32 32 124 2 ",
"   c #323821",
".  c #333A22",
"X  c #343821",
"o  c #343A22",
"O  c #363D23",
"+  c #393822",
"@  c #3D3922",
"#  c #423923",
"$  c #443923",
"%  c #543A25",
"&  c #623A26",
"*  c #693B27",
"=  c #6B3B27",
"-  c #394024",
";  c #3B4224",
":  c #3B4325",
">  c #3D4525",
",  c #3E4626",
"<  c #3E4726",
"1  c #3F4726",
"2  c #3C412B",
"3  c #404826",
"4  c #414B27",
"5  c #465029",
"6  c #475129",
"7  c #4C572B",
"8  c #4E5A2C",
"9  c #525F2E",
"0  c #424832",
"q  c #4C513D",
"w  c #53602E",
"e  c #54612E",
"r  c #596730",
"t  c #5A6831",
"y  c #5B6931",
"u  c #5B6A32",
"i  c #5E6A3D",
"p  c #5E6A3E",
"a  c #617034",
"s  c #617134",
"d  c #627234",
"f  c #637435",
"g  c #625D41",
"h  c #75796A",
"j  c #823C2A",
"k  c #863C2A",
"l  c #8D3C2B",
"z  c #A23D2D",
"x  c #B23E2F",
"c  c #6D8039",
"v  c #6E8039",
"b  c #71843A",
"n  c #74883B",
"m  c #75893B",
"M  c #768A3C",
"N  c #768B3D",
"B  c #7D933F",
"V  c #7F953F",
"C  c #778A43",
"Z  c #7E846D",
"A  c #878D4D",
"S  c #819840",
"D  c #829941",
"F  c #859C42",
"G  c #859D43",
"H  c #879E42",
"J  c #879F43",
"K  c #89A143",
"L  c #8AA244",
"P  c #8BA344",
"I  c #8CA147",
"U  c #8BA444",
"Y  c #8DA745",
"T  c #8EA746",
"R  c #8FA846",
"E  c #8FA946",
"W  c #90A946",
"Q  c #90A947",
"!  c #91AB47",
"~  c #92A34D",
"^  c #92AD48",
"/  c #93AE48",
"(  c #95AF48",
")  c #96B149",
"_  c #96B249",
"`  c #96B24A",
"'  c #97B34A",
"]  c #98B44A",
"[  c #9AB54B",
"{  c #9CB84C",
"}  c #9CB94C",
"|  c #9DBA4C",
" . c #9EBB4D",
".. c #9FBC4D",
"X. c #9DA856",
"o. c #A2A85C",
"O. c #A7B45A",
"+. c #A6B05C",
"@. c #9F8E68",
"#. c #AF9973",
"$. c #B29B75",
"%. c #B8BB69",
"&. c #B7A277",
"*. c #BDB174",
"=. c #BEB374",
"-. c #C1B278",
";. c #D0C57F",
":. c #A2A59A",
">. c #A6AA9C",
",. c #B2B4AC",
"<. c #CEB486",
"1. c #CFC080",
"2. c #D2C282",
"3. c #D6C684",
"4. c #D6C784",
"5. c #E7C398",
"6. c #EAC799",
"7. c #F0CB9F",
"8. c #FAD3A4",
"9. c #FFD7A8",
"0. c #CFD0CB",
"q. c #E5E6E3",
"w. c white",
"e. c None",
/* pixels */
"e.e.e.e.e.e.e.e.e.e.e.e.e.e.e.e.e.e.e.e.e.e.e.e.e.e.e.e.e.e.e.e.",
"e.e.e.e.e.e.e.e.e.e.e.e.e.e.e.e.e.e.e.e.e.e.e.e.e.e.e.e.e.e.e.e.",
"e.e.e.e.e.e.e.e.e.e.e.e.e.e.e.e.e.e.e.e.e.e.e.e.e.e.e.e.e.e.e.e.",
"e.e.e.e.e.e.e.e.e.e.e.e.e.e.e.e.e.e.e.e.e.e.e.e.e.e.e.e.e.e.e.e.",
"e.e.e.e.e.e.e.e.e.e.e.e.e.e.e.e.e.e.e.e.e.e.e.e.e.e.e.e.e.e.e.e.",
"e.e.e.e.e.e.e.e.e.e.e.e.e.9 w t u u u u u u u u e.e.e.e.e.e.e.e.",
"e.e.e.e.e.e.e.e.e.O : . s B S ]  .....} { { } ..y e.e.e.e.e.e.e.",
"e.e.e.e.e.e.e.e.  8 n : - > 6 S ' ..} Y P P Y } y e.e.e.e.e.e.e.",
"e.e.e.e.e.e.e.k % < p >.,.,.>.i D G d E _ _ R d 4 e.e.e.e.e.e.e.",
"e.e.e.e.e.e.$ x *   q q.w.w.q.q N G f ` ....` f 4 e.e.e.e.e.e.e.",
"e.e.e.e.e.e.# z &   q q.w.w.q.q N ..............y e.e.e.e.e.e.e.",
"e.e.e.e.e.e.X # +   q q.w.w.q.q N ..............y e.e.e.e.e.e.e.",
"e.e.e.e.e.e.e.  = = 2 h 0.0.Z C Q ..............y e.e.e.e.e.e.e.",
"e.e.e.e.e.e.e.  l l     ,.,.1 L { ........Q M M 7 e.e.e.e.e.e.e.",
"e.e.e.e.e.e.e.  j j     :.>.5 V ( | | / ! b       e.e.e.e.e.e.e.",
"e.e.e.e.e.e.e.  @ @     0 i V H L ^ / 7 3 e.e.e.e.e.e.e.e.e.e.e.",
"e.e.e.e.e.e.e.e.e.e.e.  e A *.1.2.3.4.&.g e.e.e.e.e.e.e.e.e.e.e.",
"e.e.e.e.e.e.e.e.e.e.e.e.r A -.6.8.9.9.9.#.e.e.e.e.e.e.e.e.e.e.e.",
"e.e.e.e.e.e.e.e.e.e.e.e.e.y ~ <.7.9.9.9.9.$.  e.e.e.e.e.e.e.e.e.",
"e.e.e.e.e.e.e.e.e.e.    b T ~ <.7.9.9.9.9.$.    e.e.e.e.e.e.e.e.",
"e.e.e.e.e.e.e.e.e.e.; v J Y I o.%.;.5.5.;.+.v ; e.e.e.e.e.e.e.e.",
"e.e.e.e.e.e.e.e.e.e.; v c n K W [ X.@.=.O.) L 1 e.e.e.e.e.e.e.e.",
"e.e.e.e.e.e.e.e.e.e.      9 U } ` v , G F B m > e.e.e.e.e.e.e.e.",
"e.e.e.e.e.e.e.e.e.e.e.e.e.9 U } f ; o , , > > e.e.e.e.e.e.e.e.e.",
"e.e.e.e.e.e.e.e.e.e.e.e.e.9 D a e.e.e.e.e.e.e.e.e.e.e.e.e.e.e.e.",
"e.e.e.e.e.e.e.e.e.e.e.e.e.5 f e.e.e.e.e.e.e.e.e.e.e.e.e.e.e.e.e.",
"e.e.e.e.e.e.e.e.e.e.e.e.e.    e.e.e.e.e.e.e.e.e.e.e.e.e.e.e.e.e.",
"e.e.e.e.e.e.e.e.e.e.e.e.e.e.e.e.e.e.e.e.e.e.e.e.e.e.e.e.e.e.e.e.",
"e.e.e.e.e.e.e.e.e.e.e.e.e.e.e.e.e.e.e.e.e.e.e.e.e.e.e.e.e.e.e.e.",
"e.e.e.e.e.e.e.e.e.e.e.e.e.e.e.e.e.e.e.e.e.e.e.e.e.e.e.e.e.e.e.e.",
"e.e.e.e.e.e.e.e.e.e.e.e.e.e.e.e.e.e.e.e.e.e.e.e.e.e.e.e.e.e.e.e.",
"e.e.e.e.e.e.e.e.e.e.e.e.e.e.e.e.e.e.e.e.e.e.e.e.e.e.e.e.e.e.e.e."
};
