/* XPM */
static char *a69b6667cde042f2b9e3bb3e818f0854hbyJCOb617hRkat9[] = {
/* columns rows colors chars-per-pixel */
"32 32 127 2 ",
"   c black",
".  c #323821",
"X  c #323821",
"o  c #323821",
"O  c #323821",
"+  c #323821",
"@  c #465029",
"#  c #525F2E",
"$  c #4C582B",
"%  c #323821",
"&  c #413923",
"*  c #423923",
"=  c #343821",
"-  c #687936",
";  c #88A043",
":  c #6D7F38",
">  c #404927",
",  c #3F4826",
"<  c #663A27",
"1  c #A23D2D",
"2  c #8CA445",
"3  c #91AC48",
"4  c None",
"5  c #693B27",
"6  c #B23E2F",
"7  c #443923",
"8  c #8BA444",
"9  c #92AD48",
"0  c #9DBA4C",
"q  c #9FBC4D",
"w  c #9AB54B",
"e  c #91AA47",
"r  c #96B149",
"t  c #91AB47",
"y  c #404826",
"u  c #543A25",
"i  c #823C2A",
"p  c #3D3922",
"a  c #99AD5D",
"s  c #ABBA7F",
"d  c #718241",
"f  c #98A86A",
"g  c #A4B66F",
"h  c #9CB94C",
"j  c #859D43",
"k  c #809640",
"l  c #879E43",
"z  c #6E8039",
"x  c #3B4224",
"c  c #687134",
"v  c #AEBC87",
"b  c #E5E6E3",
"n  c #4C513D",
"m  c #B2B4AC",
"M  c #D2DBB8",
"N  c #637435",
"B  c #7B913F",
"V  c #3E4626",
"C  c #343A22",
"Z  c #694229",
"A  c #868B77",
"S  c #96B24A",
"D  c #9AB64B",
"F  c #7F8374",
"G  c #F5F6F5",
"H  c #BCBEB6",
"J  c #E2E3E0",
"K  c #6E755A",
"L  c #B6C58C",
"P  c #323821",
"I  c #323821",
"U  c #8BA344",
"Y  c #9EBB4D",
"T  c #323821",
"R  c #97B34A",
"E  c #465029",
"W  c #596730",
"Q  c #819840",
"!  c #A7A961",
"~  c #C3B678",
"^  c #D2C282",
"/  c #D8C984",
"(  c #CCBA80",
")  c #A28F6B",
"_  c #42442C",
"`  c #323821",
"'  c #3D4525",
"]  c #7D933F",
"[  c #BAAE73",
"{  c #E7C398",
"}  c #FFD7A8",
"|  c #E5C397",
" . c #4C4C32",
".. c #49532A",
"X. c #7F953F",
"o. c #90AA47",
"O. c #89A144",
"+. c #4C572B",
"@. c #6F8239",
"#. c #90A946",
"$. c #89A143",
"%. c #9BA555",
"&. c #B1B465",
"*. c #C7C674",
"=. c #E2C393",
"-. c #D9C489",
";. c #444A2B",
":. c #323821",
">. c #6C7E38",
",. c #849B41",
"<. c #8DA745",
"1. c #A3BC52",
"2. c #BEB971",
"3. c #C3B976",
"4. c #B5BA67",
"5. c #96B249",
"6. c #98B44A",
"7. c #6F8139",
"8. c #53602E",
"9. c #778C3C",
"0. c #596731",
"q. c #3D4626",
"w. c #394024",
"e. c #617134",
"r. c #54612E",
"t. c #596730",
"y. c #323821",
/* pixels */
"                                                                ",
"                                                                ",
"                                                                ",
"                                                                ",
"                . X X X X X o                                   ",
"              O + @ # # # # $ o o o o o o o o %                 ",
"            & * = - ; ; ; ; : > > > > > > > > ,                 ",
"          . < 1 * - ; ; ; ; 2 3 3 3 3 3 3 3 3 4 , %             ",
"          X 5 6 7 - ; ; ; ; 8 9 0 q w e e e r t y o             ",
"          X u i p - a s d f g 8 h j k t t t l z x o             ",
"          . + = * c v b n m M 8 h N N q q q B V C o             ",
"            O * 1 Z A b n m M 8 h S S q q q D j V o             ",
"            o 7 6 5 F G H J M 8 h q q q q q q t y o             ",
"            o p i u K M M M L 8 h q q q q q q t y o             ",
"            % P P I # ; ; ; ; U w Y D t t t t j V o             ",
"                  T # ; ; ; ; ; U R B y y y y V C o             ",
"                    E W Q ! ~ ^ ^ / ( ) _ ` o o o               ",
"                % o ` ' ] [ { } } } } |  .o                     ",
"                P x > ..X.[ { } } } } |  .o                     ",
"                P z 3 o.O.[ { } } } } |  .o                     ",
"                P +.@.#.$.%.&.*.=.{ -.&.;.o                     ",
"                . :.@ >.,.<.r 1.2.3.4.t y o                     ",
"                  . + ' ] 5.D t t 6.0 t y o                     ",
"                    O ' ] 5.B y y 7.9 t y o                     ",
"                    o ' ] >.8.O + - 9.0.q.                      ",
"                    o w.e.$ o   P r.t..                         ",
"                    o y.y.o     P y.X                           ",
"                                                                ",
"                                                                ",
"                                                                ",
"                                                                ",
"                                                                "
};
