/* XPM */
static char *e1bd74ecfa744d48b083c1f5bb8a9086KGfijfLRjDfKOI58[] = {
/* columns rows colors chars-per-pixel */
"32 32 128 2 ",
"   c black",
".  c #323821",
"X  c #323821",
"o  c #323821",
"O  c #394024",
"+  c #3D4525",
"@  c #3E4626",
"#  c #404927",
"$  c #3F4826",
"%  c None",
"&  c #617134",
"*  c #7D933F",
"=  c #859C42",
"-  c #91AC48",
";  c #879F43",
":  c #5F3A26",
">  c #823C2A",
",  c #3D3922",
"<  c #687936",
"1  c #88A043",
"2  c #8BA444",
"3  c #92AD48",
"4  c #9DBA4C",
"5  c #9FBC4D",
"6  c #9AB54B",
"7  c #91AA47",
"8  c #96B149",
"9  c #91AB47",
"0  c #404826",
"q  c #323821",
"w  c #693B27",
"e  c #B23E2F",
"r  c #443923",
"t  c #99AD5D",
"y  c #ABBA7F",
"u  c #718241",
"i  c #98A86A",
"p  c #A4B66F",
"a  c #9CB94C",
"s  c #859D43",
"d  c #809640",
"f  c #879E43",
"g  c #6E8039",
"h  c #3B4224",
"j  c #623A26",
"k  c #A23D2D",
"l  c #423923",
"z  c #B5C48A",
"x  c #E5E6E3",
"c  c #4C513D",
"v  c #B2B4AC",
"b  c #D2DBB8",
"n  c #637435",
"m  c #7B913F",
"M  c #343A22",
"N  c #393822",
"B  c #343821",
"V  c #96B24A",
"C  c #9AB64B",
"Z  c #323821",
"A  c #68522D",
"S  c #939B7C",
"D  c #F5F6F5",
"F  c #BCBEB6",
"G  c #E2E3E0",
"H  c #6E755A",
"J  c #B6C58C",
"K  c #525F2E",
"L  c #8BA344",
"P  c #9EBB4D",
"I  c #97B34A",
"U  c #323821",
"Y  c #3E4726",
"T  c #596730",
"R  c #819840",
"E  c #8DA745",
"W  c #96B249",
"Q  c #9CB84C",
"!  c #90A947",
"~  c #9BA555",
"^  c #B1B465",
"/  c #C3C66F",
"(  c #444A2B",
")  c #BAAE73",
"_  c #E7C398",
"`  c #FFD7A8",
"'  c #E5C397",
"]  c #4C4C32",
"[  c #323821",
"{  c #53602E",
"}  c #788D3D",
"|  c #869D42",
" . c #323821",
".. c #4C572B",
"X. c #71853A",
"o. c #95AF48",
"O. c #8AA244",
"+. c #ADB063",
"@. c #BCAE76",
"#. c #BAA17B",
"$. c #E9C599",
"%. c #F0CB9F",
"&. c #E8CC95",
"*. c #C6BA79",
"=. c #474B2E",
"-. c #7F953F",
";. c #879E42",
":. c #74883C",
">. c #46482E",
",. c #BDA87A",
"<. c #D1B887",
"1. c #BEB971",
"2. c #93AE48",
"3. c #373E23",
"4. c #3F4726",
"5. c #465029",
"6. c #6A7B37",
"7. c #414828",
"8. c #98AB4F",
"9. c #A6BB55",
"0. c #A3BC52",
"q. c #56632F",
"w. c #363D23",
"e. c #4E5A2C",
"r. c #5B6931",
"t. c #6F8239",
"y. c #323821",
"u. c #323821",
/* pixels */
"                                                                ",
"                                                                ",
"                                                                ",
"                                                                ",
"                                                                ",
"                . X X X X X X X X X X X X X X .                 ",
"                o O + + + + @ # # # # # # # # $                 ",
"            . o % & * * * * = - - - - - - - - ; $ .             ",
"          X : > , < 1 1 1 1 2 3 4 5 6 7 7 7 8 9 0 X             ",
"          q w e r < t y u i p 2 a s d 9 9 9 f g h X             ",
"          q j k l < z x c v b 2 a n n 5 5 5 m @ M X             ",
"          q N l B < z x c v b 2 a V V 5 5 5 C s @ X             ",
"            Z , > A S D F G b 2 a 5 5 5 5 5 5 9 0 X             ",
"            X r e w H b b b J 2 a 5 5 5 5 5 5 9 0 X             ",
"            X l k j K 1 1 1 1 L 6 P C 9 9 9 9 s @ X             ",
"            X B l N K 1 1 1 1 1 L I m 0 0 0 0 @ M X             ",
"              X X U Y T R 1 E W W Q ! g h Z X X X               ",
"                  X U + * ~ ^ / / / / ^ ( X                     ",
"                    X + * ) _ ` ` ` ` ' ] X                     ",
"                    X + * ) _ ` ` ` ` ' ] X                     ",
"                [ q { } | ) _ ` ` ` ` ' ] X                     ",
"                 ...X.o.O.+.@.#.$.%.&.*.=.Z                     ",
"                 .g O.-.;.o.:.>.,.<.1.2...3.q                   ",
"                 .h 4.5.-.O.6.7.8.9.0.4 2.q.q                   ",
"                . X Z w.e.K 5.3.q.r.t.3 4 r.q                   ",
"                      q q q q q q y.5.6.:.{ X                   ",
"                                  q u.u.u.X                     ",
"                                                                ",
"                                                                ",
"                                                                ",
"                                                                ",
"                                                                "
};
