/* XPM */
static char *result[] = {
/* columns rows colors chars-per-pixel */
"32 32 114 2 ",
"   c #323821",
".  c #343821",
"X  c #343A22",
"o  c #363D23",
"O  c #393822",
"+  c #3D3922",
"@  c #423923",
"#  c #443923",
"$  c #623A26",
"%  c #693B27",
"&  c #394024",
"*  c #3B4224",
"=  c #3D4525",
"-  c #3E4626",
";  c #3E4726",
":  c #3F4826",
">  c #404826",
",  c #404927",
"<  c #444A2B",
"1  c #474B2E",
"2  c #465029",
"3  c #4E5A2C",
"4  c #525F2E",
"5  c #4C4C32",
"6  c #4C513D",
"7  c #68522D",
"8  c #54612E",
"9  c #596730",
"0  c #5B6931",
"q  c #5D6C32",
"w  c #617134",
"e  c #637435",
"r  c #647435",
"t  c #687936",
"y  c #6E755A",
"u  c #823C2A",
"i  c #A23D2D",
"p  c #B23E2F",
"a  c #6D8039",
"s  c #6E8039",
"d  c #71843A",
"f  c #768B3D",
"g  c #788D3D",
"h  c #7B913F",
"j  c #7C923F",
"k  c #7D933F",
"l  c #7F953F",
"z  c #718241",
"x  c #809640",
"c  c #819840",
"v  c #829941",
"b  c #859C42",
"n  c #859D43",
"m  c #869D42",
"M  c #879E42",
"N  c #879E43",
"B  c #879F43",
"V  c #88A043",
"C  c #8AA244",
"Z  c #8BA344",
"A  c #8BA444",
"S  c #8DA745",
"D  c #90A947",
"F  c #91AA47",
"G  c #91AB47",
"H  c #91AC48",
"J  c #92AD48",
"K  c #95AF48",
"L  c #96B149",
"P  c #96B249",
"I  c #96B24A",
"U  c #97B34A",
"Y  c #9AB54B",
"T  c #9AB64B",
"R  c #9CB84C",
"E  c #9CB94C",
"W  c #9DBA4C",
"Q  c #9EBB4D",
"!  c #9FBC4D",
"~  c #9BA555",
"^  c #99AD5D",
"/  c #A0BC4E",
"(  c #A3BC52",
")  c #A5BB54",
"_  c #A6BB55",
"`  c #939B7C",
"'  c #98A86A",
"]  c #A7A961",
"[  c #A4B66F",
"{  c #B1B465",
"}  c #BAAE73",
"|  c #ABBA7F",
" . c #BEB971",
".. c #C6BA79",
"X. c #C6BA7A",
"o. c #C3C66F",
"O. c #B2B4AC",
"+. c #BCBEB6",
"@. c #CBB880",
"#. c #D1B887",
"$. c #B5C48A",
"%. c #B6C58C",
"&. c #DECD89",
"*. c #E5C397",
"=. c #E8CC95",
"-. c #E7C398",
";. c #EECB9C",
":. c #F0CB9F",
">. c #D2DBB8",
",. c #FFD7A8",
"<. c #E2E3E0",
"1. c #E5E6E3",
"2. c #F5F6F5",
"3. c None",
/* pixels */
"3.3.3.3.3.3.3.3.3.3.3.3.3.3.3.3.3.3.3.3.3.3.3.3.3.3.3.3.3.3.3.3.",
"3.3.3.3.3.3.3.3.3.3.3.3.3.3.3.3.3.3.3.3.3.3.3.3.3.3.3.3.3.3.3.3.",
"3.3.3.3.3.3.3.3.3.3.3.3.3.3.3.3.3.3.3.3.3.3.3.3.3.3.3.3.3.3.3.3.",
"3.3.3.3.3.3.3.3.3.3.3.3.3.3.3.3.3.3.3.3.3.3.3.3.3.3.3.3.3.3.3.3.",
"3.3.3.3.3.3.3.3.3.3.3.3.3.3.3.3.3.3.3.3.3.3.3.3.3.3.3.3.3.3.3.3.",
"3.3.3.3.3.3.3.3.3.3.3.3.3.3.3.3.3.3.3.3.3.3.3.3.3.3.3.3.3.3.3.3.",
"3.3.3.3.3.3.3.3.  & = = = = - , , , , , , , , : 3.3.3.3.3.3.3.3.",
"3.3.3.3.3.3.3.    w k k k k b H H H H H H H H B : 3.3.3.3.3.3.3.",
"3.3.3.3.3.3.3.u + t V V V V A J W ! Y F F F L G > 3.3.3.3.3.3.3.",
"3.3.3.3.3.3.% p # t ^ | z ' [ A E n x G G G N s * 3.3.3.3.3.3.3.",
"3.3.3.3.3.3.$ i @ t $.1.6 O.>.A E e e ! ! ! h - X 3.3.3.3.3.3.3.",
"3.3.3.3.3.3.O @ . t $.1.6 O.>.A E I I ! ! ! T n - 3.3.3.3.3.3.3.",
"3.3.3.3.3.3.3.+ u 7 ` 2.+.<.>.A E ! ! ! ! ! ! G > 3.3.3.3.3.3.3.",
"3.3.3.3.3.3.3.# p % y >.>.>.%.A E ! ! ! ! ! ! G > 3.3.3.3.3.3.3.",
"3.3.3.3.3.3.3.@ i $ 4 V V V V Z Y Q T G G G G n - 3.3.3.3.3.3.3.",
"3.3.3.3.3.3.3.. @ O 4 V V V V V Z U h > > > > - X 3.3.3.3.3.3.3.",
"3.3.3.3.3.3.3.3.3.3.; 9 c V S P P R D s * 3.3.3.3.3.3.3.3.3.3.3.",
"3.3.3.3.3.3.3.3.3.3.3.= k ~ { o.o.o.o.{ < 3.3.3.3.3.3.3.3.3.3.3.",
"3.3.3.3.3.3.3.3.3.3.3.= k } -.,.,.,.,.*.5 3.3.3.3.3.3.3.3.3.3.3.",
"3.3.3.3.3.3.3.3.3.    = k } -.,.,.,.,.*.5 3.3.3.3.3.3.3.3.3.3.3.",
"3.3.3.3.3.3.3.3.  q f g m } -.,.,.,.,.*.5 3.3.3.3.3.3.3.3.3.3.3.",
"3.3.3.3.3.3.3.3.  q v K C ] X.&.;.:.=...1 3.3.3.3.3.3.3.3.3.3.3.",
"3.3.3.3.3.3.3.3.3.  3 l M C J ) @.#. .G > 3.3.3.3.3.3.3.3.3.3.3.",
"3.3.3.3.3.3.3.3.3.3.o 2 l K W / ) _ ( G > 3.3.3.3.3.3.3.3.3.3.3.",
"3.3.3.3.3.3.3.3.3.3.3.= k P n 0 0 j L G > 3.3.3.3.3.3.3.3.3.3.3.",
"3.3.3.3.3.3.3.3.3.3.3.& w d r 3.  8 a d 3.3.3.3.3.3.3.3.3.3.3.3.",
"3.3.3.3.3.3.3.3.3.3.3.      3.3.        3.3.3.3.3.3.3.3.3.3.3.3.",
"3.3.3.3.3.3.3.3.3.3.3.3.3.3.3.3.3.3.3.3.3.3.3.3.3.3.3.3.3.3.3.3.",
"3.3.3.3.3.3.3.3.3.3.3.3.3.3.3.3.3.3.3.3.3.3.3.3.3.3.3.3.3.3.3.3.",
"3.3.3.3.3.3.3.3.3.3.3.3.3.3.3.3.3.3.3.3.3.3.3.3.3.3.3.3.3.3.3.3.",
"3.3.3.3.3.3.3.3.3.3.3.3.3.3.3.3.3.3.3.3.3.3.3.3.3.3.3.3.3.3.3.3.",
"3.3.3.3.3.3.3.3.3.3.3.3.3.3.3.3.3.3.3.3.3.3.3.3.3.3.3.3.3.3.3.3."
};
