/* XPM */
static char *_a8466aa5f1b43eb837a12eb30aefebfV1er60WxfTVq5yVy[] = {
/* columns rows colors chars-per-pixel */
"32 32 128 2 ",
"   c black",
".  c #323821",
"X  c #323821",
"o  c #323821",
"O  c #323821",
"+  c #465029",
"@  c #525F2E",
"#  c #55632F",
"$  c #5B6A32",
"%  c #596731",
"&  c #3D4626",
"*  c #413923",
"=  c #423923",
"-  c #343821",
";  c #687936",
":  c #88A043",
">  c #90A946",
",  c #9CB94C",
"<  c #9FBC4D",
"1  c #9EBB4D",
"2  c #9CB84C",
"3  c #9DBA4C",
"4  c #91AB47",
"5  c #404826",
"6  c #323821",
"7  c #663A27",
"8  c #A23D2D",
"9  c #89A143",
"0  c #8DA745",
"q  c #97B34A",
"w  c #8BA344",
"e  c #92AD48",
"r  c #693B27",
"t  c #B23E2F",
"y  c #443923",
"u  c #A4B66F",
"i  c #C2CCA7",
"p  c #626F3F",
"a  c #A2AD84",
"s  c #B6C58C",
"d  c #8BA444",
"f  c #74883C",
"g  c #71853A",
"h  c #96B249",
"j  c #809640",
"k  c #56632F",
"l  c #373E23",
"z  c #543A25",
"x  c #823C2A",
"c  c #3D3922",
"v  c #B5C48A",
"b  c #E5E6E3",
"n  c #4C513D",
"m  c #B2B4AC",
"M  c #D2DBB8",
"N  c #859D43",
"B  c #687134",
"V  c #AEBC87",
"C  c #E9E9E7",
"Z  c #626755",
"A  c #BCBEB6",
"S  c #694229",
"D  c #868B77",
"F  c gray99",
"G  c #F5F6F5",
"H  c #636C48",
"J  c #B5C489",
"K  c #8AA244",
"L  c #95AF48",
"P  c #90A947",
"I  c #768A3C",
"U  c #6E8039",
"Y  c #3B4224",
"T  c #323821",
"R  c #323821",
"E  c #323821",
"W  c #4E5A2C",
"Q  c #7F953F",
"!  c #879E42",
"~  c #7B913F",
"^  c #3E4626",
"/  c #343A22",
"(  c #323821",
")  c #363D23",
"_  c #9AB64B",
"`  c #323821",
"'  c #3D4525",
"]  c #7D933F",
"[  c #A7A961",
"{  c #C6BA7A",
"}  c #DBCD86",
"|  c #C6BA79",
" . c #474B2E",
".. c #BAAE73",
"X. c #E7C398",
"o. c #FFD7A8",
"O. c #E5C397",
"+. c #4C4C32",
"@. c #404927",
"#. c #49532A",
"$. c #91AC48",
"%. c #90AA47",
"&. c #89A144",
"*. c #4C572B",
"=. c #6F8239",
"-. c #9BA555",
";. c #97955B",
":. c #8C7E5C",
">. c #DAB990",
",. c #D9C489",
"<. c #B1B465",
"1. c #444A2B",
"2. c #323821",
"3. c #6C7E38",
"4. c #849B41",
"5. c #7C923F",
"6. c #636D38",
"7. c #92845F",
"8. c #B3A670",
"9. c #B5BA67",
"0. c #3D4525",
"q. c None",
"w. c #91AA47",
"e. c #879F43",
"r. c #3F4826",
"t. c #4C582B",
"y. c #323821",
"u. c #323821",
/* pixels */
"                                                                ",
"                                                                ",
"                                                                ",
"                                                                ",
"                                                                ",
"                . X X X X X X X X X X X X X X .                 ",
"              o O + @ @ @ @ # $ $ $ $ $ $ $ $ % &               ",
"            * = - ; : : : : > , < < 1 2 2 2 3 4 5 6             ",
"          . 7 8 = ; : : : : 9 0 , < q w w w e 4 5 6             ",
"          X r t y ; u i p a s d , f g h h h j k l 6             ",
"          X z x c ; v b n m M d , f f < < < N k l 6             ",
"          . O - = B V C Z A M d , < < < < < < 4 5 6             ",
"            o = 8 S D F C G M d , < < < < < < 4 5 6             ",
"            6 y t r H J J J u d , < < < < < < 4 5 6             ",
"            6 c x z @ : : : : K L 2 P I I I I U Y 6             ",
"            T R R E W Q ! : 9 d d q ~ ^ / O R R R T             ",
"                  ( ) + Q : > , , 1 _ N ^ o                     ",
"                    ` ' ] [ { } } } } |  .6                     ",
"                T 6 ` ' ] ..X.o.o.o.o.O.+.6                     ",
"                R Y @.#.Q ..X.o.o.o.o.O.+.6                     ",
"                R U $.%.&...X.o.o.o.o.O.+.6                     ",
"                R *.=.> 9 -.;.:.>.X.,.<.1.6                     ",
"                . 2.+ 3.4.0 5.6.7.8.9.4 5 6                     ",
"                  . R 0.q.w.3 4 5 U 4 e.r.T                     ",
"                        0.U e 4 5 Y 5 r.                        ",
"                        T t.# k l y.u.T                         ",
"                          6 X X X X 6                           ",
"                                                                ",
"                                                                ",
"                                                                ",
"                                                                ",
"                                                                "
};
