/* XPM */
static char *e10d14935357450efcb821d7f745c163DW89uoUJnjW5mZDn[] = {
/* columns rows colors chars-per-pixel */
"32 32 24 1 ",
"  c black",
". c #1C1030",
"X c #1C1030",
"o c #170625",
"O c #170625",
"+ c #77271B",
"@ c #A43E0E",
"# c #9A3C20",
"$ c #BA5125",
"% c #E88D31",
"& c #CF732D",
"* c #C76429",
"= c #E88D2F",
"- c #F3A940",
"; c #F3A83F",
": c #E88C2F",
"> c #F5CA5C",
", c #F4A946",
"< c #993B1E",
"1 c #1C1030",
"2 c #F9C17B",
"3 c #C57F5D",
"4 c #FFE18F",
"5 c None",
/* pixels */
"                                ",
"                                ",
"                                ",
"                                ",
"                                ",
"                                ",
"                                ",
"                                ",
"            .Xo                 ",
"                                ",
"          OOOO                  ",
"         O+@++O                 ",
"        O#$%&#+O                ",
"       O+$&$$&$O                ",
"       O#*=*-**#O               ",
"       O$&;:>,:&O               ",
"       O<*&$:-*$#O              ",
"       O+$$*&:&*+O              ",
"       1O+##$**+23O             ",
"        1OOO##$#323OO           ",
"          11OOOOO3242O          ",
"             1115O43O           ",
"                1O32O1          ",
"                 1OO1           ",
"                                ",
"                                ",
"                                ",
"                                ",
"                                ",
"                                ",
"                                ",
"                                "
};
