/* XPM */
static char *result[] = {
/* columns rows colors chars-per-pixel */
"32 32 123 2 ",
"   c #262621",
".  c #2B2A23",
"X  c #342924",
"o  c #352924",
"O  c #352B25",
"+  c #342F27",
"@  c #372F27",
"#  c #3C3126",
"$  c #3C3127",
"%  c #3D3227",
"&  c #383128",
"*  c #383228",
"=  c #442F24",
"-  c #482F23",
";  c #492F23",
":  c #4A3225",
">  c #403328",
",  c #5D3726",
"<  c #543428",
"1  c #5B3A29",
"2  c #703E29",
"3  c #6A3F32",
"4  c #754537",
"5  c #764537",
"6  c #784B39",
"7  c #6F543C",
"8  c #7D583F",
"9  c #7C5C40",
"0  c #7F5E41",
"q  c #7F5F41",
"w  c #924B2F",
"e  c #8C5C3D",
"r  c #8C5C3E",
"t  c #8D5D3E",
"y  c #8F5F3F",
"u  c #A55836",
"i  c #AA5A37",
"p  c #AA593E",
"a  c #AA593F",
"s  c #AD5B3F",
"d  c #B15632",
"f  c #B25632",
"g  c #BF5B34",
"h  c #B5603A",
"j  c #C25C35",
"k  c #C5663F",
"l  c #D26337",
"z  c #D2643B",
"x  c #D2643C",
"c  c #D86538",
"v  c #D96538",
"b  c #DE6739",
"n  c #D5693D",
"m  c #D46B3F",
"M  c #D46D3F",
"N  c #D56D3F",
"B  c #E66A3A",
"V  c #E76C3B",
"C  c #E8703D",
"Z  c #E9723E",
"A  c #E9733F",
"S  c #965340",
"D  c #975541",
"F  c #985943",
"G  c #995B43",
"H  c #9D5B42",
"J  c #995C44",
"K  c #A65940",
"L  c #AB5B40",
"P  c #AC5F42",
"I  c #9C6246",
"U  c #9D6648",
"Y  c #AC6143",
"T  c #AD6143",
"R  c #AE6243",
"E  c #AC6A47",
"W  c #A06C4A",
"Q  c #A06D4B",
"!  c #A16F4B",
"~  c #B06343",
"^  c #B66644",
"/  c #B86844",
"(  c #BE6C45",
")  c #A2734D",
"_  c #A3754E",
"`  c #B37249",
"'  c #B47249",
"]  c #C26E46",
"[  c #C17246",
"{  c #D07647",
"}  c #DC7241",
"|  c #D97746",
" . c #D07748",
".. c #D17748",
"X. c #D57948",
"o. c #DC7E49",
"O. c #DD7E49",
"+. c #DE7F49",
"@. c #E17844",
"#. c #EB7842",
"$. c #EC7942",
"%. c #E97E45",
"&. c #ED7D44",
"*. c #DF8049",
"=. c #EE8046",
"-. c #EF8347",
";. c #E3824A",
":. c #E7854A",
">. c #E9864B",
",. c #EA864B",
"<. c #EA874B",
"1. c #EB874B",
"2. c #EC884B",
"3. c #F08347",
"4. c #F08448",
"5. c #F08548",
"6. c #F18649",
"7. c #F2894A",
"8. c #F28A4B",
"9. c #F08A4C",
"0. c #F18B4C",
"q. c #F38C4C",
"w. c None",
/* pixels */
"w.w.w.w.w.w.w.w.S S S S S S S S S S S S S S w.w.w.w.w.w.w.w.w.w.",
"w.w.w.w.w.w.w.w.Y P L L P T T T T T T P L s w.w.w.w.w.w.w.w.w.w.",
"w.w.w.w.w.w.w./ X.| m m | o.o.o.o.o.o.| m n @.w.w.w.w.w.w.w.w.w.",
"w.w.w.w.w.] (  .<.3.Z A 4.q.q.q.q.q.q.3.Z C =.>...w.w.w.w.w.w.w.",
"w.w.w.w.*.>.:.<.9.3.Z A 4.q.q.q.q.q.q.3.Z Z -.0.2.1.w.w.w.w.w.w.",
"w.w.w.{ ,.q.q.8.6.%.} } %.3.3.3.3.3.3.%.} } %.6.8.q.q.q.w.w.w.w.",
"w./ o.,.9.q.q.6.$.} [ [ } Z Z Z Z Z Z } [ [ } $.6.q.q.q.q.w.w.w.",
"S ^ ;.8.6.3.3.&.C N ' ' N B B B B B B N ' ' N C &.3.3.5.7.O.R S ",
"S ~ +.6.$.Z Z C V N ' ' N B B B B B B N ' ' N V C Z Z #.5.o.T S ",
"S P | &.C B B v g u e e u d d d d d d u e e u g v B B C &.| P S ",
"S L m C V B B g 2 = # # = - - - - - - = # # = 2 g B B V C m L S ",
"S p z B B v g w < o o o o o o o o o o o o o o < w g v B B x a S ",
"S p z B B g 2 < 3 5 5 5 5 5 5 5 5 5 5 5 5 5 5 3 < 2 g B B x a S ",
"S p z B B d - o 5 D F F D D F J J F D D F F D 4 X ; f B B x a S ",
"S p z B B d - o 5 F U U F F U Q Q U F F U U F 4 X ; f B B x a S ",
"S p z B B d - O 6 I ! W G J Q _ _ W G J Q ! I 6 O ; f B B x a S ",
"S p z B B d - @ 8 ! ) W G J Q _ _ W G J Q ) ! 8 @ ; f B B x a S ",
"S p z B B d - * q _ _ W G J Q _ _ W G J Q _ _ 0 & ; f B B x a S ",
"S p z B B d - * q _ _ W G J Q _ _ W G J Q _ _ 0 & ; f B B x a S ",
"S p z B B d - * q _ _ W G J Q _ _ W G J Q _ _ 0 & ; f B B x a S ",
"S p z B B d - * q _ _ W G J Q _ _ W G J Q _ _ 0 & ; f B B x a S ",
"S p z B B d - * q _ _ W G J Q _ _ W G J Q _ _ 0 & ; f B B x a S ",
"S p z B B d - * q _ _ W G J Q _ _ W G J Q _ _ 0 & ; f B B x a S ",
"S p z B B d - * q _ _ W G J Q _ _ W G J Q _ _ 0 & ; f B B x a S ",
"S p z B B d - * q _ _ W G J Q _ _ W G J Q _ _ 0 & ; f B B x a S ",
"S K k N N u = * q _ _ W G J Q _ _ W G J Q _ _ 0 & = u N N k K S ",
"S H E ' ' e # * q _ _ W G J Q _ _ W G J Q _ _ 0 & $ r ' ' E H S ",
"S H E ` ` y > * q _ _ W G J Q _ _ W G J Q _ _ 9 + % t ' ' E H S ",
"S K k N M h 1 * q _ _ W G J Q _ _ W G J Q _ _ 7 . : i N N k K S ",
"S p z B B l w.w.w.w.w.w.w.w.w.w.w.w.w.w.w.w.w.w.  , j B B x a S ",
"S p z B B b w.w.w.w.w.w.w.w.w.w.w.w.w.w.w.w.w.w.w.w.c B B x a S ",
"S p z B B B w.w.w.w.w.w.w.w.w.w.w.w.w.w.w.w.w.w.w.w.B B B x a S "
};
