/* XPM */
static char *result[] = {
/* columns rows colors chars-per-pixel */
"32 32 74 1 ",
"  c #141B1B",
". c #1C1E1D",
"X c #1C1F1D",
"o c #21201D",
"O c #2C2522",
"+ c #2C2622",
"@ c #352924",
"# c #3B2A21",
"$ c #3C3126",
"% c #3C3127",
"& c #442F24",
"* c #482F23",
"= c #492F23",
"- c #4D342B",
"; c #543B2D",
": c #5D3A30",
"> c #5D3B30",
", c #703E29",
"< c #764537",
"1 c #7E4839",
"2 c #7E4939",
"3 c #8A472C",
"4 c #8D4F39",
"5 c #8E503E",
"6 c #8C5C3D",
"7 c #8C5C3E",
"8 c #A55836",
"9 c #AA593E",
"0 c #AA593F",
"q c #AF5A3E",
"w c #B15632",
"e c #B25632",
"r c #BF5B34",
"t c #BD633D",
"y c #C5663F",
"u c #D2643B",
"i c #D6653B",
"p c #D2643C",
"a c #D96538",
"s c #D46B3F",
"d c #D56D3F",
"f c #E0683A",
"g c #E66A3A",
"h c #E76C3B",
"j c #E8703D",
"k c #E9723E",
"l c #E9733F",
"z c #965340",
"x c #9D5B42",
"c c #A65940",
"v c #AB5B40",
"b c #AC5F42",
"n c #946040",
"m c #AB6043",
"M c #AD6143",
"N c #AC6A47",
"B c #BF6C45",
"V c #B47249",
"C c #C17246",
"Z c #CE7547",
"A c #DC7241",
"S c #D97746",
"D c #DC7E49",
"F c #EC7942",
"G c #E97E45",
"H c #ED7D44",
"J c #E2814A",
"K c #ED884B",
"L c #F08347",
"P c #F08448",
"I c #F18649",
"U c #F28A4B",
"Y c #F38C4C",
"T c None",
/* pixels */
"TTTTTTTTzzzzzzzzzzzzzzzzTTTTTTTT",
"TTTTTTTTmbvvbMMMMMMbvvbmTTTTTTTT",
"TTTTzzzmZSssSDDDDDDSssSZmzzzTTTT",
"TTTTmMMBJLklPYYYYYYLklPJBMMmTTTT",
"TTzmZDDJKLklPYYYYYYLklPKJDDZmzTT",
"TTmBJYYUIGAAGLLLLLLGAAGIUYYJBmTT",
"zmZJKYYIFACCAkkkkkkACCAFIYYKJZmz",
"zMDUILLHjdVVdggggggdVVdjHLLIUDMz",
"zMDIFkkjhdVVdggggggdVVdhjkkFIDMz",
"zbSHjggar8668wwwwww8668raggjHSbz",
"zvsjhggr,&$$&******&$$&,rgghjsvz",
"z9uggar3#              #3raggp0z",
"z9uggr,#o              o#,rggp0z",
"z9uggw*                  =eggp0z",
"z9uggw*                  =eggp0z",
"z9uggw*                  =eggp0z",
"z9uggw*                  =eggp0z",
"z9uggw*                  =eggp0z",
"z9uggw*                  =eggp0z",
"z9uggw*                  =eggp0z",
"z9uggw*                  =eggp0z",
"z9uggw*                  =eggp0z",
"z9uggw*                  =eggp0z",
"z9uggw*                  =eggp0z",
"z9uggw*                  =eggp0z",
"zcydd8&X+@@@@@@@@@@@@@@+.&8ddycz",
"zxNVV6$+><<<<<<<<<<<<<<:O%7VVNxz",
"zxNVVn;-2zzzzzzzzzzzzzz1-;nVVNxz",
"zcyddt425zzzzzzzzzzzzzz524tddycz",
"z9uggiqzzzzzzzzzzzzzzzzzzqiggp0z",
"z9uggfTTTTTTTTTTTTTTTTTTTTfggp0z",
"z9ugggTTTTTTTTTTTTTTTTTTTTgggp0z"
};
