/* XPM */
static char *dca4250680224a07fd93efa0a42237216lJndsjWGNlDg2bw[] = {
/* columns rows colors chars-per-pixel */
"32 32 5 1 ",
"  c None",
". c #141B1B",
"X c #E67C44",
"o c #FFAD5D",
"O c #A16240",
/* pixels */
" .XooooooooooooooooooooooooooX. ",
".XooooooooooooooooooooooooooooX.",
"oooooooooooooooooooooooooooooooo",
"oooooooooooooooooooooooooooooooo",
"ooooXoooooooooooooooXooooooooooo",
"oooooXoooooooooooooooXoooooooooo",
"oooooooooooooooooooooooooooooooo",
"oooooooooooooooooooooooooooooooo",
"ooooooooooXoooooooooooooooXooooo",
"oooooooooXoooooooooooooooXoooooo",
"oooooooooooooooooooooooooooooooo",
"oooooooooooooooooooooooooooooooo",
"oooooooooooooooooooooooooooooooo",
"oooooooooooooooooooooooooooooooo",
"oooooooooooooooooooooooooooooooo",
"oooooooooooooooooooooooooooooooo",
"oooooooooooooooooooooooooooooooo",
"oooooooooooooooooooooooooooooooo",
"oooooooooooooooooooooooooooooooo",
"oooooooooooooooooooooooooooooooo",
"oooooooooooXooooooooXooooooooooo",
"ooooooooooXooooooooooXoooooooooo",
"oooooooooooooooooooooooooooooooo",
"oooooooooooooooooooooooooooooooo",
"oooooXooooooooooooooooooooXooooo",
"ooooooXooooooooooooooooooXoooooo",
"XooooooooooooooooooooooooooooooX",
"XXooooooooooooooooooooooooooooXX",
"XXooooooooooooooooooooooooooooXX",
"OXooooooooooooooooooooooooooooXO",
" .oooooooooooooooooooooooooooo. ",
" .oooooooooooooooooooooooooooo. "
};
