/* XPM */
static char *a561605c98e04149ce9155fc28cd9d20nSp5E0WGMuQZtdn5[] = {
/* columns rows colors chars-per-pixel */
"32 32 6 1 ",
"  c None",
". c #141B1B",
"X c #C69469",
"o c #BD7959",
"O c #D2B37D",
"+ c #965746",
/* pixels */
"                                ",
"                                ",
"            ....                ",
"          ..XXXX..              ",
"        ..XXXXXXXX.             ",
"       .XXXXXXXXXXo.            ",
"       .OOXXXXXXXoo+.           ",
"      .OOOOOXXXXoo++.           ",
"      .OOOOOOXXoo++++..         ",
"     .OOOOOOOOoo+++oooo..       ",
"     .XOOOOOOooo++ooooooo..     ",
"     .XXXOOOOoooOoooooooooo.    ",
"     .XXXXXOOooOOOOoooooooo.    ",
"     .oXXXXXXooOOOOOOooooooo.   ",
"    .XXooXXXooXXXOOOOOOoooo+.   ",
"   .OOXXXooooXXXXXXOOOOOOo+++.  ",
"  .OOOOXXXooXXXXXXXXXOOOOo+++.  ",
" .OOOOOOXXXoXXXXXXXXXXXOoo+++.  ",
" .OOOOOOOXooXXXXXXXXXXXXooo++.  ",
" .XOOOOXXXoooXXXXXooooXXooooo.  ",
" .XXOOOXXXXXoooXXoXXXXoooooooo. ",
".OXXXXOOXXXXoooooOOXXXXXooooooo.",
".OOXXXOOOOXXooooXOOOXXXo++ooooo.",
".XOOXXXXOOOXoooXXXOOOXo+++ooooo.",
".XXOOXXXXXXoooXXXXXOOo+++XXooo+.",
".XXXXXXXXXoooXXXXXXXoooooXXXo++.",
".XXXXXXoo++ooXXXXXXooXXoooXX+++.",
" XXXXXoXXX++oXXXXXooXXXXoo+++++.",
"  XXXoXXXXo+ooXXXXoXXXXXXo++++  ",
"   oooXXXoo+ ooooooXXXXXXo++    ",
"    ooXXooo      oooooXXXo      ",
"       ooo            ooo       "
};
